<?xml version="1.0" standalone="no"?>
<!DOCTYPE svg PUBLIC "-//W3C//DTD SVG 20010904//EN"
 "http://www.w3.org/TR/2001/REC-SVG-20010904/DTD/svg10.dtd">
<svg version="1.0" xmlns="http://www.w3.org/2000/svg"
 width="375.000000pt" height="134.000000pt" viewBox="0 0 375.000000 134.000000"
 preserveAspectRatio="xMidYMid meet">

<g transform="translate(0.000000,134.000000) scale(0.100000,-0.100000)" stroke="none">
<path d="M2039 1326 c-93 -25 -143 -84 -142 -168 1 -87 66 -142 208 -177 118
-30 155 -65 121 -116 -36 -55 -144 -36 -172 31 l-15 36 -79 -4 c-43 -1 -81 -6
-84 -9 -9 -9 13 -74 37 -110 12 -19 44 -45 72 -59 44 -22 62 -25 160 -25 100
0 115 3 162 28 68 35 103 92 103 166 0 62 -18 101 -62 135 -35 26 -125 59
-193 72 -56 10 -95 31 -95 53 0 52 92 70 135 26 14 -13 25 -30 25 -38 0 -11
17 -13 83 -9 45 2 84 6 86 8 11 10 -23 85 -50 112 -56 54 -194 77 -300 48z"/>
<path d="M50 1031 l0 -301 90 0 90 0 0 120 0 120 29 0 c37 0 57 -24 122 -147
l50 -93 99 0 c55 0 100 2 100 5 0 10 -72 149 -98 187 -14 22 -39 46 -55 55
l-30 15 40 18 c98 43 131 153 74 246 -36 59 -72 67 -303 72 l-208 4 0 -301z
m325 167 c30 -13 41 -48 26 -77 -13 -23 -67 -41 -128 -41 l-43 0 0 65 0 65 60
0 c32 0 71 -5 85 -12z"/>
<path d="M176 609 c-60 -14 -103 -46 -125 -93 -57 -117 4 -200 186 -250 54
-15 106 -35 116 -43 26 -24 22 -69 -8 -89 -57 -37 -141 -8 -159 56 -9 30 -12
32 -45 26 -20 -3 -57 -6 -83 -6 -43 0 -48 -2 -48 -22 0 -35 40 -107 74 -132
117 -89 360 -65 431 43 32 48 42 114 26 164 -19 56 -69 93 -168 122 -172 50
-168 49 -171 73 -5 36 15 52 65 52 33 0 50 -6 68 -25 14 -13 25 -29 25 -36 0
-11 152 -10 164 2 3 3 1 20 -4 39 -14 50 -66 98 -124 115 -55 16 -159 18 -220
4z"/>
<path d="M862 601 c-110 -38 -173 -139 -174 -277 0 -121 21 -180 87 -246 51
-51 119 -73 225 -73 68 0 94 5 133 24 55 27 101 78 121 137 l14 42 -67 17
c-36 10 -71 20 -78 22 -7 3 -18 -11 -26 -29 -21 -50 -61 -78 -111 -78 -83 0
-116 49 -116 173 0 103 21 144 87 167 38 13 46 12 78 -3 20 -9 43 -30 52 -46
18 -30 22 -30 135 0 36 9 37 10 26 41 -19 53 -86 114 -147 132 -72 21 -173 20
-239 -3z"/>
<path d="M2320 607 c-134 -38 -202 -133 -202 -287 -1 -145 44 -230 146 -280
143 -71 350 -36 412 70 22 37 27 37 45 4 20 -39 90 -82 161 -100 138 -36 287
10 353 109 l35 52 0 -83 0 -82 238 2 237 3 0 70 0 70 -147 3 -148 3 0 224 0
225 -90 0 -90 0 0 -82 0 -83 -30 48 c-56 89 -166 134 -302 125 -83 -6 -165
-44 -208 -96 l-30 -36 -34 41 c-49 56 -121 85 -221 90 -45 1 -100 -3 -125 -10z
m178 -144 c35 -21 52 -73 52 -153 0 -118 -38 -170 -125 -170 -85 0 -127 56
-127 171 0 85 23 137 70 161 38 18 92 15 130 -9z m556 -8 c36 -33 46 -65 46
-147 0 -116 -40 -168 -127 -168 -88 0 -126 51 -126 169 0 123 36 171 129 171
40 0 57 -5 78 -25z"/>
<path d="M1420 310 l0 -300 90 0 90 0 0 125 0 125 105 0 105 0 0 -125 0 -125
90 0 90 0 0 300 0 300 -90 0 -90 0 0 -105 0 -105 -105 0 -105 0 0 105 0 105
-90 0 -90 0 0 -300z"/>
</g>
</svg>
